<?xml version="1.0" encoding="utf-8"?>
<!-- Generator: Adobe Illustrator 16.0.0, SVG Export Plug-In . SVG Version: 6.00 Build 0)  -->
<!DOCTYPE svg PUBLIC "-//W3C//DTD SVG 1.1//EN" "http://www.w3.org/Graphics/SVG/1.1/DTD/svg11.dtd">
<svg version="1.1" id="Layer_1" xmlns="http://www.w3.org/2000/svg" xmlns:xlink="http://www.w3.org/1999/xlink" x="0px" y="0px"
	 width="480px" height="480px" viewBox="0 0 480 480" enable-background="new 0 0 480 480" xml:space="preserve">
<g id="refresh">
	<path fill="#FFFFFF" d="M383.434,172.502c-25.336-58.241-81.998-95.648-145.859-95.648c-65.309,0-125,40.928-148.514,101.827
		l49.5,19.117c15.672-40.617,55.469-67.894,99.014-67.894c42.02,0,79.195,24.386,96.408,62.332l-36.119,14.428l92.354,53.279
		l27.01-100.935L383.434,172.502z"/>
	<path fill="#FFFFFF" d="M237.573,342.102c-41.639,0-79.615-25.115-96.592-62.818l35.604-13.764L85.198,213.4l-27.975,98.249
		l34.08-13.172c24.852,58.02,82.859,96.672,146.27,96.672c65.551,0,123.598-39.336,147.871-100.195L336.176,275.3
		C319.981,315.877,281.288,342.102,237.573,342.102z"/>
</g>
</svg>
